<svg width="110" height="10" viewBox="0 0 110 10" fill="none" xmlns="http://www.w3.org/2000/svg">
  <g clip-path="url(#clip0_953_7847)">
    <path d="M4.42889 9.84979C1.86808 9.84979 0 7.70647 0 4.89162C0 2.07678 1.86808 0.152298 4.42889 0.152298H9.34041V1.04052H4.42889C2.39231 1.04052 0.902837 2.62173 0.902837 4.93668C0.902837 7.25163 2.39231 8.94226 4.42889 8.94226H9.34041V9.83048H4.42889V9.85193V9.84979Z" fill="white" />
    <path d="M22.3108 9.84979L20.7153 7.08L20.2534 6.30119L17.3161 1.25721L12.3422 9.84979H11.3353L16.8959 0.30248C16.9999 0.107243 17.1268 -3.05176e-05 17.3369 -3.05176e-05C17.547 -3.05176e-05 17.651 0.107243 17.7571 0.30248L23.3198 9.84764H22.3129L22.3108 9.84979Z" fill="white" />
    <path d="M25.6477 9.84978V8.96156H32.6166C33.8336 8.96156 34.4639 8.18276 34.4639 7.12075C34.4639 6.05875 33.8127 5.325 32.6166 5.325H28.1253C26.4881 5.325 25.5021 4.24369 25.5021 2.72685C25.5021 1.21 26.4257 0.150146 28.1461 0.150146H34.8404V1.03837H28.1461C27.0332 1.03837 26.4049 1.77426 26.4049 2.76976C26.4049 3.76525 27.056 4.47969 28.1253 4.47969H32.6166C34.3578 4.47969 35.2814 5.36791 35.2814 7.14221C35.2814 8.9165 34.4202 9.84764 32.6166 9.84764H25.6477V9.84978Z" fill="white" />
    <path d="M38.0315 9.84978V8.96156H45.0004C46.2173 8.96156 46.8477 8.18276 46.8477 7.12075C46.8477 6.05875 46.1965 5.325 45.0004 5.325H40.5091C38.8719 5.325 37.8859 4.24369 37.8859 2.72685C37.8859 1.21 38.8095 0.150146 40.5299 0.150146H47.2242V1.03837H40.507C39.3941 1.03837 38.7658 1.77426 38.7658 2.76976C38.7658 3.76525 39.4169 4.47969 40.4862 4.47969H44.9775C46.7187 4.47969 47.6423 5.36791 47.6423 7.14221C47.6423 8.9165 46.7811 9.84764 44.9775 9.84764H38.0294L38.0315 9.84978Z" fill="white" />
    <path d="M50.4777 9.84979V0.152298H51.3597V9.84979H50.4777Z" fill="white" />
    <path d="M55.1584 1.45031V9.84979H54.3408V0.628594C54.3408 0.259575 54.5301 0.0450287 54.8234 0.0450287C55.1168 0.0450287 55.1168 0.109393 55.2437 0.283175L62.9261 8.55179V0.152302H63.7436V9.43786C63.7436 9.80688 63.5543 9.99997 63.2818 9.99997C63.0093 9.99997 62.9677 9.91416 62.82 9.76183L55.1584 1.45031Z" fill="white" />
    <path d="M70.8145 9.84979C68.2745 9.84979 66.3856 7.70647 66.3856 4.89377C66.3856 2.08107 68.2537 0.152298 70.8145 0.152298H73.0175C75.6407 0.152298 77.4672 2.07892 77.4672 4.89377C77.4672 7.70862 75.6199 9.84979 73.0175 9.84979H70.8145ZM73.0196 8.96157C75.0978 8.96157 76.5873 7.25163 76.5873 4.95599C76.5873 2.66034 75.1186 1.05983 73.0196 1.05983H70.8166C68.78 1.05983 67.2905 2.64103 67.2905 4.95599C67.2905 7.27094 68.78 8.96157 70.8166 8.96157H73.0196Z" fill="white" />
    <path d="M82.1062 7.316V4.93453C82.0854 4.93453 86.6807 4.93453 86.6807 4.93453C87.4774 4.93453 87.9601 4.47969 87.9601 3.76526C87.9601 3.05082 87.4774 2.59598 86.6807 2.59598H82.2518V9.84764H79.8595V0.152298H86.6599C88.9482 0.152298 90.29 1.53827 90.29 3.68158C90.29 5.8249 88.9461 7.29669 86.6599 7.29669H82.0854C82.0854 7.31814 82.1062 7.31814 82.1062 7.31814V7.316Z" fill="#0075CD" />
    <path d="M92.3286 9.84979V0.152298H94.7209V9.84979H92.3286Z" fill="#0075CD" />
    <path d="M106.117 9.84979L102.948 6.3441L99.8009 9.84979H96.7158L101.5 4.78435L97.0923 0.152298H100.367L103.158 3.22675L105.909 0.152298H108.994L104.565 4.80581L109.414 9.87124H106.119V9.84979H106.117Z" fill="#0075CD" />
    <path d="M86.976 4.93454H82.2538V7.29455H86.976V4.93454Z" fill="url(#paint0_linear_953_7847)" />
    <path d="M19.1634 6.49427L17.3162 4.61055L15.4897 6.49427C15.0279 6.97056 15.0279 7.70645 15.4897 8.18274C15.9099 8.57322 16.6026 8.61613 17.0852 8.26856L16.7066 9.54511H17.9652L17.5658 8.26856C17.7759 8.42089 18.0276 8.50671 18.3001 8.50671C18.5726 8.50671 18.9512 8.39944 19.1614 8.16129C19.6648 7.70645 19.6648 6.97056 19.1614 6.49427H19.1634Z" fill="url(#paint1_linear_953_7847)" />
  </g>
  <defs>
    <linearGradient id="paint0_linear_953_7847" x1="82.2538" y1="6.11454" x2="86.9552" y2="6.11454" gradientUnits="userSpaceOnUse">
      <stop stop-color="#0D3A5E" />
      <stop offset="1" stop-color="#0075CD" />
    </linearGradient>
    <linearGradient id="paint1_linear_953_7847" x1="17.3411" y1="9.54511" x2="17.3411" y2="4.5891" gradientUnits="userSpaceOnUse">
      <stop stop-color="#0D3A5E" />
      <stop offset="1" stop-color="#0075CD" />
    </linearGradient>
    <clipPath id="clip0_953_7847">
      <rect width="109.412" height="10" fill="white" />
    </clipPath>
  </defs>
</svg>